<svg version="1.2" xmlns="http://www.w3.org/2000/svg" viewBox="0 0 440 446" width="440" height="446">
	<style>
		.s0 { fill: #ffca00 } 
		.s1 { fill: #ffffff } 
	</style>
	<path fill-rule="evenodd" class="s0" d="m199.5 431c-22.2-2.5-47-9.8-68.3-20-21.9-10.6-39.7-23.3-57.7-41.5-40.7-41-62.3-96.7-60.2-155 1.2-32 7.9-57.9 22.4-86.9 27.9-55.6 81.7-97.1 142.8-110.2 11.7-2.5 35-5.2 36.1-4.2 0.3 0.4-1.6 3.6-4.3 7.1l-4.8 6.5-6.4 0.7c-3.5 0.4-11.3 1.7-17.5 3-50.1 10.5-94.2 40.7-122.9 84-46 69.6-42.6 160.5 8.4 227.7 39.3 51.6 105.4 81.2 169.5 75.9 66.9-5.5 124.6-42 156.9-99.1 5.4-9.5 13.7-27.9 15.1-33.4 0.6-2.3 2-3.4 8.2-6.3 4.1-1.8 7.7-3.1 8-2.8 0.9 0.9-5.6 20-11 32-16.2 36.5-45.9 70.5-80 91.7-24 14.9-49.5 24.5-77.8 29.3-11.2 1.9-44.7 2.8-56.5 1.5zm2.5-37.1c-10.6-1.3-21.8-3.8-32-7.1-11.6-3.7-22-8.3-22-9.7 0-1.5 5.3-11.1 6.2-11.1 0.4 0 4.7 1.6 9.5 3.6 32.3 13 70 14.8 103.8 4.8 5-1.4 9.8-2.9 10.8-3.1 1.3-0.4 2.3 0.8 4.2 5.1 1.4 3.1 2.5 6 2.5 6.5 0 1-18.2 6.7-27.5 8.6-16.9 3.4-39.8 4.4-55.5 2.4zm92.7-21.4c-1.5-3-2.7-6-2.7-6.5 0-0.5 2.2-2.1 4.9-3.4 2.7-1.4 9.7-5.7 15.6-9.7 25-16.7 48.1-46.2 58.5-74.7 1.5-4.2 3.2-7.7 3.6-7.7 3.6 0.2 12.4 3.1 12.4 4.1 0 2.4-6.2 17.5-11 26.9-15 29.2-37.7 53.1-66.4 70-5.1 3-10 5.7-10.7 6-1 0.4-2.3-1.2-4.2-5zm-165.3-4.6c-16.7-10.6-37.5-31-49.3-48.4-8.6-12.5-17.7-31.1-21.9-44.5-5-16.1-5.2-14.6 2.5-16 6.7-1.1 8.2-0.7 8.3 2.6 0 2.4 6.2 19.9 9.9 27.7 12.2 26.3 33.8 51.1 57.9 66.6 2.8 1.8 5.2 3.5 5.2 3.7 0 1.5-5.6 11.4-6.5 11.4-0.6 0-3.3-1.4-6.1-3.1zm197.2-60.3c-5.8-2.2-8.4-4.4-12.2-10.6-4.7-7.7-6.4-15.3-6.4-28.5 0-17 4.2-29.3 11.9-35.4 12.4-9.7 27.3-5 34.5 10.9 7.2 15.8 5.2 43.6-3.9 55.6-5.9 7.8-15.7 11-23.9 8zm12-19.4c8-11.9 4.3-43.2-5-43.2-3.3 0-7.2 4.3-8.5 9.5-1.4 5.7-1.4 22.3 0 28 2.4 9.4 9.1 12.3 13.5 5.7zm-104.6 3.8h3c2.4 0 3.3-0.6 4.1-2.7 0.6-1.6 0.9-15.8 0.7-38-0.3-38.1-0.2-37.2-5.5-37.3-2.2 0-2.3-0.4-2.3-7.6v-7.6l23.8 0.4c26.2 0.3 27.3 0.6 32.7 7 3.6 4.3 5.4 8.7 6.6 16.1 1.2 7.2-0.2 18.1-3 23.5-2.3 4.4-7.4 9.8-11.2 11.8l-2.8 1.4 7.6 14.7c4.2 8.2 8.3 15.6 9.1 16.6 0.8 0.9 2.8 1.7 4.4 1.7h2.8v15h-20.6l-9.3-21.2c-10.7-24.5-11.4-25.8-14.1-25.8-1.9 0-2 0.7-2 14.4 0 7.9 0.3 15.1 0.6 16 0.4 1 1.8 1.6 3.5 1.6h2.9v15h-31zm41.6-49.5c5-3.2 7-13.5 3.9-19.5-2.5-4.9-5.1-6-13.7-6h-7.8v28.3l7.6-0.6c4.4-0.3 8.6-1.2 10-2.2zm107.1 16.8c-4.6-1.2-5.7-1.9-5.2-3.2 0.3-0.9 1.3-6.1 2.2-11.6 1.9-12.4 1.3-39-1.2-51.5-3.4-17.5-12.2-40-20.9-53.9-1.4-2.2-2.6-4.5-2.6-5 0-1.5 9.8-8.3 11-7.6 2 1.2 13.1 22.3 17 32.2 9.2 23.5 12.5 43.3 11.7 69.8-0.6 15.9-1.2 21.7-3.2 30.3-0.6 2.5-0.9 2.5-8.8 0.5zm-331.1-13.6c-1.4-4.7-1.8-32.4-0.7-41.7 2.6-21.2 8.3-40.5 17.3-58.5 5.4-10.8 17.4-29.5 19.4-30.2 0.6-0.2 3.3 1.6 5.9 3.9l4.7 4.3-6.8 10c-19.1 28.2-28.5 61.3-27.1 95.6 0.3 7.4 0.7 14.1 0.9 14.9 0.2 0.9-1.2 1.6-4.2 2.2-2.5 0.4-5.5 1-6.6 1.3-1.6 0.3-2.3-0.1-2.8-1.8zm90.6-41.7c1.11 0 1.81-0.03 2.23-0.26 0.42 6.32 0.57 19.3 0.57 41.76v46.5h10v14.7l-8.2 0.6c-8.4 0.7-37.4 0.6-46 0l-4.8-0.4v-14.8l4.3-0.3 4.2-0.3 0.5-53.3 0.5-53.4 2.8 2.2c5.9 4.7 16.4 6.2 25 3.6 1.04-0.32 2.03-0.56 2.85-0.71-1.24 0.78-1.08 1.73 0.85 7.51 2 6.2 2.3 6.6 5.2 6.6zm-5.9-14.2c1.4-0.7 1.3-1.6-1-7.6-4.2-11.1-4.5-10.6 3.1-7.7 5.23 2.01 8.21 2.73 9.69 2.31q-0.16 0.22-0.29 0.29c-0.5 0.3 1.7 1.6 5 2.7 2.98 1.14 5.87 1.77 9.4 2.04q-0.32 0.16-0.7 0.16c-0.8 0-1.5 0.4-1.5 0.9 0 0.4-2 1.4-4.5 2.1-2.5 0.7-4.5 1.6-4.5 1.9 0 0.4 1.8 2.5 4 4.6 4.6 4.5 5.6 9.1 1.8 8-1.3-0.4-4.2-2.5-6.5-4.7l-4.1-4.1-1 3.5c-0.5 1.8-0.7 4.8-0.4 6.6 0.24 1.81 0.26 2.6-0.37 2.94-0.36-5.33-0.91-5.91-1.73-3.44-0.2 0.6-1.2-1.3-2.2-4.3-1-3-1.9-5.8-2.1-6.2-0.12-0.18-1-0.14-2.25 0.09q0.07-0.05 0.15-0.09zm12.9-14c0.6-1.6 13.8 3.1 13.8 4.9 0 0.48-0.33 0.92-0.8 1.14q2.15 0.16 4.7 0.16h8.2l-0.2 52.8c0 29-0.3 53.7-0.6 55-0.4 1.8-1.2 2.2-4.3 2.2h-3.8l-0.4 7.5-0.3 7.4 5 0.4c2.8 0.3 16 0.4 29.5 0.3l24.5-0.2 0.3-7.6 0.3-7.7-10.6-0.6v-12.5c0-6.9 0.1-31.5 0.3-54.7l0.2-42.3h60.3c37.6 0 61.6-0.4 63.9-1 5-1.4 11.2-7.9 12.8-13.4 2.9-10.3-3.5-21.7-13.7-24.5-4-1.1-191.4-1.6-192.5-0.5-0.3 0.3 0.7 3.1 2.3 6.2 3.9 7.5 4.6 14.2 2.4 21.8-0.77 2.74-1.76 5.34-2.41 6.21q0.87-0.24 1.11-1.01zm-32.6 9.8c-18.1-6.8-19.4-32.2-2.1-41.4 4.8-2.6 14.1-2.2 20 0.9 7.4 3.7 10.8 9.2 11.3 17.8 0.4 7.3-0.9 11.4-3.3 10.5-1-0.4-1.2-1.5-0.8-3.5 0.5-2.7 0.3-2.9-2.6-2.9-2.1 0-3.1 0.5-3.1 1.5 0 0.8-0.9 1.5-2 1.5-1.1 0-2-0.7-2-1.5 0-1.2-1.6-1.5-8-1.5-7.5 0-8 0.1-8 2.1 0 2 0.4 2.1 5.3 1.5 5.5-0.7 6.9-0.2 8 2.7 0.6 1.6 0.2 1.7-2.8 1.1-4.3-0.8-8.5 0.2-8.5 2 0 2.2 4 6.6 6 6.6 1 0 3-1.4 4.3-3.1l2.5-3.2 1.2 3.8c0.8 2.4 0.9 4 0.3 4.6-1.8 1.8-11.5 2-15.7 0.5zm-4.8-11.4c0.8-0.6 1-1.9 0.6-4-0.6-2.7-1.1-3.2-3.6-3.2-2.8 0-3 0.2-2.3 2.7 1.1 4.6 2.8 6 5.3 4.5zm0.7-15.3c0.5-2.2 0.3-3.4-0.6-4-2.5-1.5-3.7-1-4.8 2.2-1.6 4.5-1.4 4.9 1.8 4.9 2.5 0 3-0.5 3.6-3.1zm19.5 1.2c0-1.7-0.9-1.9-8-1.9-7.2 0-8 0.2-8 1.9 0 1.7 0.8 1.9 8 1.9 7.2 0 8-0.2 8-1.9zm10 0.4c0-2.3-2.2-6.5-3.5-6.5-2 0-3.2 2-2.7 5 0.4 2.5 0.9 3 3.3 3 1.9 0 2.9-0.5 2.9-1.5zm-14.2-6.1c1.2-0.4 2.2-1.3 2.2-2.2 0-2.2-4-6.2-6.1-6.2-1.9 0-5.9 4.5-5.9 6.6 0 2 5.4 2.9 9.8 1.8zm212.3-38.4c-11.9-13.3-28.5-25.9-46-34.9-16.2-8.3-32.2-13.1-56-16.7-3.2-0.5-3.3-0.7-2.7-4.2 0.3-2 0.6-5.1 0.6-6.9v-3.2l5.3 0.5c33.6 3.6 69.2 19.4 95.7 42.6 8.8 7.7 20 19.8 20 21.6 0 0.9-9.1 8.2-10.2 8.2-0.2 0-3.2-3.2-6.7-7zm-238.4-6.4c-2.6-2.3-4.7-4.7-4.7-5.4 0-1.9 18.8-17.9 29-24.7 26.7-17.7 55.4-27.5 85.8-29.2l11.2-0.6v14l-10.7 0.7c-35.9 2.2-70.2 17-98 42.2l-7.8 7.1zm100.8 299.8c-13.3-1.8-19.2-2.9-27.4-5.1-44.7-11.7-85.3-41.2-110.6-80.3-12.5-19.3-22.8-45.6-27-69-2.6-14.6-3.1-42.9-1.1-57.5 5.9-42.3 23.6-77.6 54.1-108 29.3-29.3 64.2-46.8 105.3-53 11.4-1.7 39-2 51.2-0.5 32.5 4.1 67.2 19.1 94 40.7 8.9 7.2 24.6 23.3 31.3 32 14.3 18.7 26.5 43.7 32.1 65.8 16.5 65.4-1.3 132-47.9 179.1-28.8 29.1-58.4 45.2-98.5 53.4-8.4 1.8-14.7 2.3-31.5 2.5-11.5 0.2-22.3 0.1-24-0.1zm39.3-6.4c70.8-7.5 131.4-56.4 153.1-123.5 7.2-22.2 8.6-31.9 8.6-57.5 0-17.4-0.4-24.4-1.8-31-5.7-27.8-14-48.2-28.3-69.5-27.9-41.8-69-68.4-120.8-78.2-13.1-2.5-48.5-2.4-61.1 0.1-38.3 7.6-68 22.8-94.8 48.6-27.9 26.7-46.3 61.5-53.3 100.5-2.2 12.5-2.6 45.1-0.6 56.5 7.1 39.8 22.4 71.1 48.2 98.3 39.1 41.3 94.2 61.6 150.8 55.7z"/>
	<path id="Layer copy" fill-rule="evenodd" class="s1" d="m192.5 426c-22.2-2.5-47-9.8-68.3-20-21.9-10.6-39.7-23.3-57.7-41.5-40.7-41-62.3-96.7-60.2-155 1.2-32 7.9-57.9 22.4-86.9 27.9-55.6 81.7-97.1 142.8-110.2 11.7-2.5 35-5.2 36.1-4.2 0.3 0.4-1.6 3.6-4.3 7.1l-4.8 6.5-6.4 0.7c-3.5 0.4-11.3 1.7-17.5 3-50.1 10.5-94.2 40.7-122.9 84-46 69.6-42.6 160.5 8.4 227.7 39.3 51.6 105.4 81.2 169.5 75.9 66.9-5.5 124.6-42 156.9-99.1 5.4-9.5 13.7-27.9 15.1-33.4 0.6-2.3 2-3.4 8.2-6.3 4.1-1.8 7.7-3.1 8-2.8 0.9 0.9-5.6 20-11 32-16.2 36.5-45.9 70.5-80 91.7-24 14.9-49.5 24.5-77.8 29.3-11.2 1.9-44.7 2.8-56.5 1.5zm2.5-37.1c-10.6-1.3-21.8-3.8-32-7.1-11.6-3.7-22-8.3-22-9.7 0-1.5 5.3-11.1 6.2-11.1 0.4 0 4.7 1.6 9.5 3.6 32.3 13 70 14.8 103.8 4.8 5-1.4 9.8-2.9 10.8-3.1 1.3-0.4 2.3 0.8 4.2 5.1 1.4 3.1 2.5 6 2.5 6.5 0 1-18.2 6.7-27.5 8.6-16.9 3.4-39.8 4.4-55.5 2.4zm92.7-21.4c-1.5-3-2.7-6-2.7-6.5 0-0.5 2.2-2.1 4.9-3.4 2.7-1.4 9.7-5.7 15.6-9.7 25-16.7 48.1-46.2 58.5-74.7 1.5-4.2 3.2-7.7 3.6-7.7 3.6 0.2 12.4 3.1 12.4 4.1 0 2.4-6.2 17.5-11 26.9-15 29.2-37.7 53.1-66.4 70-5.1 3-10 5.7-10.7 6-1 0.4-2.3-1.2-4.2-5zm-165.3-4.6c-16.7-10.6-37.5-31-49.3-48.4-8.6-12.5-17.7-31.1-21.9-44.5-5-16.1-5.2-14.6 2.5-16 6.7-1.1 8.2-0.7 8.3 2.6 0 2.4 6.2 19.9 9.9 27.7 12.2 26.3 33.8 51.1 57.9 66.6 2.8 1.8 5.2 3.5 5.2 3.7 0 1.5-5.6 11.4-6.5 11.4-0.6 0-3.3-1.4-6.1-3.1zm197.2-60.3c-5.8-2.2-8.4-4.4-12.2-10.6-4.7-7.7-6.4-15.3-6.4-28.5 0-17 4.2-29.3 11.9-35.4 12.4-9.7 27.3-5 34.5 10.9 7.2 15.8 5.2 43.6-3.9 55.6-5.9 7.8-15.7 11-23.9 8zm12-19.4c8-11.9 4.3-43.2-5-43.2-3.3 0-7.2 4.3-8.5 9.5-1.4 5.7-1.4 22.3 0 28 2.4 9.4 9.1 12.3 13.5 5.7zm-104.6 3.8h3c2.4 0 3.3-0.6 4.1-2.7 0.6-1.6 0.9-15.8 0.7-38-0.3-38.1-0.2-37.2-5.5-37.3-2.2 0-2.3-0.4-2.3-7.6v-7.6l23.8 0.4c26.2 0.3 27.3 0.6 32.7 7 3.6 4.3 5.4 8.7 6.6 16.1 1.2 7.2-0.2 18.1-3 23.5-2.3 4.4-7.4 9.8-11.2 11.8l-2.8 1.4 7.6 14.7c4.2 8.2 8.3 15.6 9.1 16.6 0.8 0.9 2.8 1.7 4.4 1.7h2.8v15h-20.6l-9.3-21.2c-10.7-24.5-11.4-25.8-14.1-25.8-1.9 0-2 0.7-2 14.4 0 7.9 0.3 15.1 0.6 16 0.4 1 1.8 1.6 3.5 1.6h2.9v15h-31zm41.6-49.5c5-3.2 7-13.5 3.9-19.5-2.5-4.9-5.1-6-13.7-6h-7.8v28.3l7.6-0.6c4.4-0.3 8.6-1.2 10-2.2zm107.1 16.8c-4.6-1.2-5.7-1.9-5.2-3.2 0.3-0.9 1.3-6.1 2.2-11.6 1.9-12.4 1.3-39-1.2-51.5-3.4-17.5-12.2-40-20.9-53.9-1.4-2.2-2.6-4.5-2.6-5 0-1.5 9.8-8.3 11-7.6 2 1.2 13.1 22.3 17 32.2 9.2 23.5 12.5 43.3 11.7 69.8-0.6 15.9-1.2 21.7-3.2 30.3-0.6 2.5-0.9 2.5-8.8 0.5zm-331.1-13.6c-1.4-4.7-1.8-32.4-0.7-41.7 2.6-21.2 8.3-40.5 17.3-58.5 5.4-10.8 17.4-29.5 19.4-30.2 0.6-0.2 3.3 1.6 5.9 3.9l4.7 4.3-6.8 10c-19.1 28.2-28.5 61.3-27.1 95.6 0.3 7.4 0.7 14.1 0.9 14.9 0.2 0.9-1.2 1.6-4.2 2.2-2.5 0.4-5.5 1-6.6 1.3-1.6 0.3-2.3-0.1-2.8-1.8zm90.6-41.7c1.11 0 1.81-0.03 2.23-0.26 0.42 6.32 0.57 19.3 0.57 41.76v46.5h10v14.7l-8.2 0.6c-8.4 0.7-37.4 0.6-46 0l-4.8-0.4v-14.8l4.3-0.3 4.2-0.3 0.5-53.3 0.5-53.4 2.8 2.2c5.9 4.7 16.4 6.2 25 3.6 1.04-0.32 2.03-0.56 2.85-0.71-1.24 0.78-1.08 1.73 0.85 7.51 2 6.2 2.3 6.6 5.2 6.6zm-5.9-14.2c1.4-0.7 1.3-1.6-1-7.6-4.2-11.1-4.5-10.6 3.1-7.7 5.23 2.01 8.21 2.73 9.69 2.31q-0.16 0.22-0.29 0.29c-0.5 0.3 1.7 1.6 5 2.7 2.98 1.14 5.87 1.77 9.4 2.04q-0.32 0.16-0.7 0.16c-0.8 0-1.5 0.4-1.5 0.9 0 0.4-2 1.4-4.5 2.1-2.5 0.7-4.5 1.6-4.5 1.9 0 0.4 1.8 2.5 4 4.6 4.6 4.5 5.6 9.1 1.8 8-1.3-0.4-4.2-2.5-6.5-4.7l-4.1-4.1-1 3.5c-0.5 1.8-0.7 4.8-0.4 6.6 0.24 1.81 0.26 2.6-0.37 2.94-0.36-5.33-0.91-5.91-1.73-3.44-0.2 0.6-1.2-1.3-2.2-4.3-1-3-1.9-5.8-2.1-6.2-0.12-0.18-1-0.14-2.25 0.09q0.07-0.05 0.15-0.09zm12.9-14c0.6-1.6 13.8 3.1 13.8 4.9 0 0.48-0.33 0.92-0.8 1.14q2.15 0.16 4.7 0.16h8.2l-0.2 52.8c0 29-0.3 53.7-0.6 55-0.4 1.8-1.2 2.2-4.3 2.2h-3.8l-0.4 7.5-0.3 7.4 5 0.4c2.8 0.3 16 0.4 29.5 0.3l24.5-0.2 0.3-7.6 0.3-7.7-10.6-0.6v-12.5c0-6.9 0.1-31.5 0.3-54.7l0.2-42.3h60.3c37.6 0 61.6-0.4 63.9-1 5-1.4 11.2-7.9 12.8-13.4 2.9-10.3-3.5-21.7-13.7-24.5-4-1.1-191.4-1.6-192.5-0.5-0.3 0.3 0.7 3.1 2.3 6.2 3.9 7.5 4.6 14.2 2.4 21.8-0.77 2.74-1.76 5.34-2.41 6.21q0.87-0.24 1.11-1.01zm-32.6 9.8c-18.1-6.8-19.4-32.2-2.1-41.4 4.8-2.6 14.1-2.2 20 0.9 7.4 3.7 10.8 9.2 11.3 17.8 0.4 7.3-0.9 11.4-3.3 10.5-1-0.4-1.2-1.5-0.8-3.5 0.5-2.7 0.3-2.9-2.6-2.9-2.1 0-3.1 0.5-3.1 1.5 0 0.8-0.9 1.5-2 1.5-1.1 0-2-0.7-2-1.5 0-1.2-1.6-1.5-8-1.5-7.5 0-8 0.1-8 2.1 0 2 0.4 2.1 5.3 1.5 5.5-0.7 6.9-0.2 8 2.7 0.6 1.6 0.2 1.7-2.8 1.1-4.3-0.8-8.5 0.2-8.5 2 0 2.2 4 6.6 6 6.6 1 0 3-1.4 4.3-3.1l2.5-3.2 1.2 3.8c0.8 2.4 0.9 4 0.3 4.6-1.8 1.8-11.5 2-15.7 0.5zm-4.8-11.4c0.8-0.6 1-1.9 0.6-4-0.6-2.7-1.1-3.2-3.6-3.2-2.8 0-3 0.2-2.3 2.7 1.1 4.6 2.8 6 5.3 4.5zm0.7-15.3c0.5-2.2 0.3-3.4-0.6-4-2.5-1.5-3.7-1-4.8 2.2-1.6 4.5-1.4 4.9 1.8 4.9 2.5 0 3-0.5 3.6-3.1zm19.5 1.2c0-1.7-0.9-1.9-8-1.9-7.2 0-8 0.2-8 1.9 0 1.7 0.8 1.9 8 1.9 7.2 0 8-0.2 8-1.9zm10 0.4c0-2.3-2.2-6.5-3.5-6.5-2 0-3.2 2-2.7 5 0.4 2.5 0.9 3 3.3 3 1.9 0 2.9-0.5 2.9-1.5zm-14.2-6.1c1.2-0.4 2.2-1.3 2.2-2.2 0-2.2-4-6.2-6.1-6.2-1.9 0-5.9 4.5-5.9 6.6 0 2 5.4 2.9 9.8 1.8zm212.3-38.4c-11.9-13.3-28.5-25.9-46-34.9-16.2-8.3-32.2-13.1-56-16.7-3.2-0.5-3.3-0.7-2.7-4.2 0.3-2 0.6-5.1 0.6-6.9v-3.2l5.3 0.5c33.6 3.6 69.2 19.4 95.7 42.6 8.8 7.7 20 19.8 20 21.6 0 0.9-9.1 8.2-10.2 8.2-0.2 0-3.2-3.2-6.7-7zm-238.4-6.4c-2.6-2.3-4.7-4.7-4.7-5.4 0-1.9 18.8-17.9 29-24.7 26.7-17.7 55.4-27.5 85.8-29.2l11.2-0.6v14l-10.7 0.7c-35.9 2.2-70.2 17-98 42.2l-7.8 7.1zm100.8 299.8c-13.3-1.8-19.2-2.9-27.4-5.1-44.7-11.7-85.3-41.2-110.6-80.3-12.5-19.3-22.8-45.6-27-69-2.6-14.6-3.1-42.9-1.1-57.5 5.9-42.3 23.6-77.6 54.1-108 29.3-29.3 64.2-46.8 105.3-53 11.4-1.7 39-2 51.2-0.5 32.5 4.1 67.2 19.1 94 40.7 8.9 7.2 24.6 23.3 31.3 32 14.3 18.7 26.5 43.7 32.1 65.8 16.5 65.4-1.3 132-47.9 179.1-28.8 29.1-58.4 45.2-98.5 53.4-8.4 1.8-14.7 2.3-31.5 2.5-11.5 0.2-22.3 0.1-24-0.1zm39.3-6.4c70.8-7.5 131.4-56.4 153.1-123.5 7.2-22.2 8.6-31.9 8.6-57.5 0-17.4-0.4-24.4-1.8-31-5.7-27.8-14-48.2-28.3-69.5-27.9-41.8-69-68.4-120.8-78.2-13.1-2.5-48.5-2.4-61.1 0.1-38.3 7.6-68 22.8-94.8 48.6-27.9 26.7-46.3 61.5-53.3 100.5-2.2 12.5-2.6 45.1-0.6 56.5 7.1 39.8 22.4 71.1 48.2 98.3 39.1 41.3 94.2 61.6 150.8 55.7z"/>
</svg>